<svg width="40" height="40" viewBox="0 0 40 40" fill="none" xmlns="http://www.w3.org/2000/svg">
    <g clip-path="url(#clip0_1229_1736)">
        <path d="M23.5714 13.75C23.5714 12.7969 23.1952 11.8828 22.5254 11.2088C21.8556 10.5349 20.9472 10.1562 20 10.1562C19.0528 10.1562 18.1444 10.5349 17.4746 11.2088C16.8048 11.8828 16.4286 12.7969 16.4286 13.75C16.4286 14.7031 16.8048 15.6172 17.4746 16.2912C18.1444 16.9651 19.0528 17.3438 20 17.3438C20.9472 17.3438 21.8556 16.9651 22.5254 16.2912C23.1952 15.6172 23.5714 14.7031 23.5714 13.75ZM14.2857 13.75C14.2857 12.225 14.8878 10.7625 15.9594 9.68414C17.031 8.6058 18.4845 8 20 8C21.5155 8 22.969 8.6058 24.0406 9.68414C25.1122 10.7625 25.7143 12.225 25.7143 13.75C25.7143 15.275 25.1122 16.7375 24.0406 17.8159C22.969 18.8942 21.5155 19.5 20 19.5C18.4845 19.5 17.031 18.8942 15.9594 17.8159C14.8878 16.7375 14.2857 15.275 14.2857 13.75ZM12.2009 28.8438H27.7991C27.4018 26.0002 24.9732 23.8125 22.0402 23.8125H17.9598C15.0268 23.8125 12.5982 26.0002 12.2009 28.8438ZM10 29.6658C10 25.241 13.5625 21.6562 17.9598 21.6562H22.0402C26.4375 21.6562 30 25.241 30 29.6658C30 30.4025 29.4062 31 28.6741 31H11.3259C10.5938 31 10 30.4025 10 29.6658Z" fill="white"/>
    </g>
    <defs>
        <clipPath id="clip0_1229_1736">
            <rect width="20" height="23" fill="white" transform="translate(10 8)"/>
        </clipPath>
    </defs>
</svg>