<svg width="48" height="48" viewBox="0 0 48 48" fill="none" xmlns="http://www.w3.org/2000/svg">
    <mask id="mask0_11_11" style="mask-type:luminance" maskUnits="userSpaceOnUse" x="14" y="12" width="20" height="23">
        <path d="M34 12H14V35H34V12Z" fill="white"/>
    </mask>
    <g mask="url(#mask0_11_11)">
        <path d="M27.5714 17.75C27.5714 16.7969 27.1952 15.8828 26.5254 15.2088C25.8556 14.5349 24.9472 14.1562 24 14.1562C23.0528 14.1562 22.1444 14.5349 21.4746 15.2088C20.8048 15.8828 20.4286 16.7969 20.4286 17.75C20.4286 18.7031 20.8048 19.6172 21.4746 20.2912C22.1444 20.9651 23.0528 21.3438 24 21.3438C24.9472 21.3438 25.8556 20.9651 26.5254 20.2912C27.1952 19.6172 27.5714 18.7031 27.5714 17.75ZM18.2857 17.75C18.2857 16.225 18.8878 14.7625 19.9594 13.6841C21.031 12.6058 22.4845 12 24 12C25.5155 12 26.969 12.6058 28.0406 13.6841C29.1122 14.7625 29.7143 16.225 29.7143 17.75C29.7143 19.275 29.1122 20.7375 28.0406 21.8159C26.969 22.8942 25.5155 23.5 24 23.5C22.4845 23.5 21.031 22.8942 19.9594 21.8159C18.8878 20.7375 18.2857 19.275 18.2857 17.75ZM16.2009 32.8438H31.7991C31.4018 30.0002 28.9732 27.8125 26.0402 27.8125H21.9598C19.0268 27.8125 16.5982 30.0002 16.2009 32.8438ZM14 33.6658C14 29.241 17.5625 25.6562 21.9598 25.6562H26.0402C30.4375 25.6562 34 29.241 34 33.6658C34 34.4025 33.4062 35 32.6741 35H15.3259C14.5938 35 14 34.4025 14 33.6658Z" fill="black"/>
    </g>
    <circle cx="24" cy="24" r="23" stroke="black" stroke-width="2"/>
</svg>
