<svg width="28" height="24" viewBox="0 0 28 24" fill="none" xmlns="http://www.w3.org/2000/svg">
<path d="M3.20833 12H24.7917C25.5967 12 26.25 12.6533 26.25 13.4583V19L27.125 18.125H0.875L1.75 19V13.4583C1.75 12.6533 2.40333 12 3.20833 12ZM3.20833 10.25C2.35743 10.25 1.54138 10.588 0.939699 11.1897C0.33802 11.7914 0 12.6074 0 13.4583L0 19C0 19.483 0.392 19.875 0.875 19.875H27.125C27.3571 19.875 27.5796 19.7828 27.7437 19.6187C27.9078 19.4546 28 19.2321 28 19V13.4583C28 12.6074 27.662 11.7914 27.0603 11.1897C26.4586 10.588 25.6426 10.25 24.7917 10.25H3.20833ZM0 19V22.5C0 22.7321 0.0921872 22.9546 0.256282 23.1187C0.420376 23.2828 0.642936 23.375 0.875 23.375C1.10706 23.375 1.32962 23.2828 1.49372 23.1187C1.65781 22.9546 1.75 22.7321 1.75 22.5V19C1.75 18.7679 1.65781 18.5454 1.49372 18.3813C1.32962 18.2172 1.10706 18.125 0.875 18.125C0.642936 18.125 0.420376 18.2172 0.256282 18.3813C0.0921872 18.5454 0 18.7679 0 19ZM26.25 19V22.5C26.25 22.7321 26.3422 22.9546 26.5063 23.1187C26.6704 23.2828 26.8929 23.375 27.125 23.375C27.3571 23.375 27.5796 23.2828 27.7437 23.1187C27.9078 22.9546 28 22.7321 28 22.5V19C28 18.7679 27.9078 18.5454 27.7437 18.3813C27.5796 18.2172 27.3571 18.125 27.125 18.125C26.8929 18.125 26.6704 18.2172 26.5063 18.3813C26.3422 18.5454 26.25 18.7679 26.25 19ZM25.375 11.125V3.25C25.375 2.55381 25.0984 1.88613 24.6062 1.39384C24.1139 0.901562 23.4462 0.625 22.75 0.625H5.25C4.55381 0.625 3.88613 0.901562 3.39384 1.39384C2.90156 1.88613 2.625 2.55381 2.625 3.25V11.125C2.625 11.3571 2.71719 11.5796 2.88128 11.7437C3.04538 11.9078 3.26794 12 3.5 12C3.73206 12 3.95462 11.9078 4.11872 11.7437C4.28281 11.5796 4.375 11.3571 4.375 11.125V3.25C4.375 3.01794 4.46719 2.79538 4.63128 2.63128C4.79538 2.46719 5.01794 2.375 5.25 2.375H22.75C22.9821 2.375 23.2046 2.46719 23.3687 2.63128C23.5328 2.79538 23.625 3.01794 23.625 3.25V11.125C23.625 11.3571 23.7172 11.5796 23.8813 11.7437C24.0454 11.9078 24.2679 12 24.5 12C24.7321 12 24.9546 11.9078 25.1187 11.7437C25.2828 11.5796 25.375 11.3571 25.375 11.125ZM9.91667 7.625H18.0833C18.1607 7.625 18.2349 7.65573 18.2896 7.71043C18.3443 7.76512 18.375 7.83931 18.375 7.91667V11.125L19.25 10.25H8.75L9.625 11.125V7.91667C9.625 7.83931 9.65573 7.76512 9.71043 7.71043C9.76512 7.65573 9.83931 7.625 9.91667 7.625ZM9.91667 5.875C9.37518 5.875 8.85588 6.0901 8.47299 6.47299C8.0901 6.85588 7.875 7.37518 7.875 7.91667V11.125C7.875 11.608 8.267 12 8.75 12H19.25C19.4821 12 19.7046 11.9078 19.8687 11.7437C20.0328 11.5796 20.125 11.3571 20.125 11.125V7.91667C20.125 7.37518 19.9099 6.85588 19.527 6.47299C19.1441 6.0901 18.6248 5.875 18.0833 5.875H9.91667Z" fill="black"/>
</svg>
