<svg width="30" height="30" viewBox="0 0 30 30" fill="none" xmlns="http://www.w3.org/2000/svg">
<path d="M1 10.3333H29M7.22222 1V4.11111M22.7778 1V4.11111M5.66667 15H8.77778M13.4444 15H16.5556M21.2222 15H24.3333M5.66667 19.6667H8.77778M13.4444 19.6667H16.5556M21.2222 19.6667H24.3333M5.66667 24.3333H8.77778M13.4444 24.3333H16.5556M21.2222 24.3333H24.3333M5.97778 29H24.0222C25.7646 29 26.6359 29 27.3013 28.6609C27.8867 28.3627 28.3627 27.8867 28.6609 27.3013C29 26.6359 29 25.7646 29 24.0222V9.08889C29 7.3465 29 6.47531 28.6609 5.80981C28.3627 5.22441 27.8867 4.74847 27.3013 4.45021C26.6359 4.11111 25.7646 4.11111 24.0222 4.11111H5.97778C4.2354 4.11111 3.3642 4.11111 2.6987 4.45021C2.1133 4.74847 1.63736 5.22441 1.3391 5.80981C1 6.47531 1 7.3465 1 9.08889V24.0222C1 25.7646 1 26.6359 1.3391 27.3013C1.63736 27.8867 2.1133 28.3627 2.6987 28.6609C3.3642 29 4.23538 29 5.97778 29Z" stroke="black" stroke-width="2" stroke-linecap="round"/>
</svg>
