<svg width="14" height="14" viewBox="0 0 14 14" fill="none" xmlns="http://www.w3.org/2000/svg">
    <path d="M5.92308 1.07692C5.92308 0.48125 6.40433 0 7 0C7.59567 0 8.07692 0.48125 8.07692 1.07692V5.92308H12.9231C13.5188 5.92308 14 6.40433 14 7C14 7.59567 13.5188 8.07692 12.9231 8.07692H8.07692V12.9231C8.07692 13.5187 7.59567 14 7 14C6.40433 14 5.92308 13.5187 5.92308 12.9231V8.07692H1.07692C0.48125 8.07692 -1.19209e-07 7.59567 -1.19209e-07 7C-1.19209e-07 6.40433 0.48125 5.92308 1.07692 5.92308H5.92308V1.07692Z" fill="white"/>
</svg>
