<svg width="28" height="23" viewBox="0 0 28 23" fill="none" xmlns="http://www.w3.org/2000/svg">
<path d="M7.36944 21.9297C7.07291 22.252 6.65972 22.4375 6.22222 22.4375C5.78472 22.4375 5.37152 22.252 5.075 21.9297L0.797219 17.2422C0.218746 16.6074 0.257635 15.6162 0.894441 15.0352C1.53125 14.4541 2.51319 14.4932 3.09166 15.1328L4.66666 16.8564V2.125C4.66666 1.26074 5.3618 0.5625 6.22222 0.5625C7.08264 0.5625 7.77777 1.26074 7.77777 2.125V16.8564L9.35277 15.1279C9.93125 14.4932 10.9181 14.4492 11.55 15.0303C12.1819 15.6113 12.2257 16.6025 11.6472 17.2373L7.36944 21.9248V21.9297ZM15.5556 22.4375C14.6951 22.4375 14 21.7393 14 20.875C14 20.0107 14.6951 19.3125 15.5556 19.3125H17.1111C17.9715 19.3125 18.6667 20.0107 18.6667 20.875C18.6667 21.7393 17.9715 22.4375 17.1111 22.4375H15.5556ZM15.5556 16.1875C14.6951 16.1875 14 15.4893 14 14.625C14 13.7607 14.6951 13.0625 15.5556 13.0625H20.2222C21.0826 13.0625 21.7778 13.7607 21.7778 14.625C21.7778 15.4893 21.0826 16.1875 20.2222 16.1875H15.5556ZM15.5556 9.9375C14.6951 9.9375 14 9.23926 14 8.375C14 7.51074 14.6951 6.8125 15.5556 6.8125H23.3333C24.1937 6.8125 24.8889 7.51074 24.8889 8.375C24.8889 9.23926 24.1937 9.9375 23.3333 9.9375H15.5556ZM15.5556 3.6875C14.6951 3.6875 14 2.98926 14 2.125C14 1.26074 14.6951 0.5625 15.5556 0.5625H26.4444C27.3049 0.5625 28 1.26074 28 2.125C28 2.98926 27.3049 3.6875 26.4444 3.6875H15.5556Z" fill="black"/>
</svg>
