<svg width="23" height="23" viewBox="0 0 23 23" fill="none" xmlns="http://www.w3.org/2000/svg">
<path d="M11.4907 0.0216337C11.4493 0.141023 9.51731 6.3781 8.93192 8.27804L8.78092 8.76795H4.38942C1.97338 8.76795 -0.00206691 8.77412 1.62302e-06 8.78235C1.62302e-06 8.79265 0.0475778 8.83382 0.103428 8.87704C0.161347 8.92027 1.28456 9.77864 2.60015 10.7832C3.91573 11.7877 5.45472 12.9589 6.01736 13.3871C6.58 13.8152 7.05369 14.1775 7.06817 14.1899C7.08886 14.2084 6.81374 15.1162 5.73811 18.5949C4.99344 21.0054 4.38529 22.9794 4.38942 22.9835C4.39149 22.9856 4.46389 22.9362 4.5487 22.8724C4.75349 22.7201 8.69818 19.7147 10.2641 18.5188L11.501 17.574L11.5776 17.6316C11.6189 17.6625 12.0678 18.0042 12.5746 18.3912C13.3255 18.9634 18.0562 22.5698 18.4989 22.9053L18.6209 23L18.6064 22.9382C18.5982 22.9053 17.9921 20.9354 17.2578 18.5599C16.5234 16.1845 15.9277 14.229 15.9318 14.2125C15.938 14.1981 16.2214 13.9758 16.5607 13.7164C17.024 13.3644 20.9852 10.3406 22.8407 8.92439C22.9276 8.85852 23 8.79471 23 8.78441C23 8.77618 21.0266 8.76795 18.6147 8.76795H14.2315L14.1384 8.47359C14.0867 8.31303 13.704 7.07797 13.2882 5.73175C12.0347 1.67868 11.5155 0.00928295 11.5072 0.00104919C11.5031 -0.00306769 11.4948 0.00516621 11.4907 0.0216337Z" fill="#F57393"/>
</svg>
