<svg width="40" height="40" viewBox="0 0 40 40" fill="none" xmlns="http://www.w3.org/2000/svg">
<circle cx="20" cy="20" r="19" stroke="#6A7682" stroke-width="2"/>
<g clip-path="url(#clip0_1471_618)">
<rect width="20" height="23" transform="translate(10 9)" fill="white"/>
<path d="M23.5714 14.75C23.5714 13.7969 23.1952 12.8828 22.5254 12.2088C21.8556 11.5349 20.9472 11.1562 20 11.1562C19.0528 11.1562 18.1444 11.5349 17.4746 12.2088C16.8048 12.8828 16.4286 13.7969 16.4286 14.75C16.4286 15.7031 16.8048 16.6172 17.4746 17.2912C18.1444 17.9651 19.0528 18.3438 20 18.3438C20.9472 18.3438 21.8556 17.9651 22.5254 17.2912C23.1952 16.6172 23.5714 15.7031 23.5714 14.75ZM14.2857 14.75C14.2857 13.225 14.8878 11.7625 15.9594 10.6841C17.031 9.6058 18.4845 9 20 9C21.5155 9 22.969 9.6058 24.0406 10.6841C25.1122 11.7625 25.7143 13.225 25.7143 14.75C25.7143 16.275 25.1122 17.7375 24.0406 18.8159C22.969 19.8942 21.5155 20.5 20 20.5C18.4845 20.5 17.031 19.8942 15.9594 18.8159C14.8878 17.7375 14.2857 16.275 14.2857 14.75ZM12.2009 29.8438H27.7991C27.4018 27.0002 24.9732 24.8125 22.0402 24.8125H17.9598C15.0268 24.8125 12.5982 27.0002 12.2009 29.8438ZM10 30.6658C10 26.241 13.5625 22.6562 17.9598 22.6562H22.0402C26.4375 22.6562 30 26.241 30 30.6658C30 31.4025 29.4062 32 28.6741 32H11.3259C10.5938 32 10 31.4025 10 30.6658Z" fill="#6A7682"/>
</g>
<defs>
<clipPath id="clip0_1471_618">
<rect width="20" height="23" fill="white" transform="translate(10 9)"/>
</clipPath>
</defs>
</svg>
