<svg width="33" height="34" viewBox="0 0 33 34" fill="none" xmlns="http://www.w3.org/2000/svg">
<path d="M24.0415 26.9352L17.5488 23.3382C19.9619 21.4397 20.6178 17.7086 20.6178 15.6162V11.2612C20.6178 8.37787 16.7867 5.16656 12.9381 5.16656C9.0915 5.16656 5.15831 8.37787 5.15831 11.2612V15.6162C5.15831 17.5189 5.96269 21.3665 8.40056 23.3217L1.74075 26.9342C1.74075 26.9342 0 27.7097 0 28.676V31.2892C0 32.2513 0.780656 33.0309 1.74075 33.0309H24.0415C25.0016 33.0309 25.7823 32.2503 25.7823 31.2892V28.676C25.7823 27.6509 24.0405 26.9342 24.0405 26.9342L24.0415 26.9352ZM23.7198 30.9705H2.0625V29.1266C2.20997 29.0183 2.41725 28.8936 2.58019 28.8193C2.62866 28.7977 2.67712 28.7739 2.72353 28.7471L9.38438 25.1347C9.99178 24.8047 10.394 24.1942 10.4558 23.5063C10.5177 22.8185 10.23 22.1451 9.69169 21.713C7.96228 20.3259 7.22081 17.2559 7.22081 15.6172V11.2623C7.22081 9.78037 10.0134 7.23009 12.9381 7.23009C15.9173 7.23009 18.5553 9.74634 18.5553 11.2623V15.6172C18.5553 17.2322 18.0541 20.3167 16.2742 21.7171C15.7297 22.1461 15.4358 22.8205 15.4935 23.5104C15.5512 24.2003 15.9534 24.817 16.5608 25.1491L23.0536 28.7461C23.1103 28.777 23.1835 28.8111 23.2433 28.8379C23.396 28.9028 23.5826 29.0101 23.7198 29.105V30.9705ZM31.2593 21.8006L24.6696 18.2036C27.0827 16.3051 27.8355 12.574 27.8355 10.4816V6.12666C27.8355 3.24328 23.9085 0 20.0599 0C17.5591 0 15.0026 1.36022 13.5145 3.10097C14.3632 3.15356 15.2986 3.15459 16.1071 3.41241C17.194 2.56575 18.5677 2.06353 20.0599 2.06353C23.0392 2.06353 25.773 4.61072 25.773 6.12769V10.4827C25.773 12.0976 25.1749 15.1821 23.396 16.5825C22.8504 17.0115 22.5576 17.6859 22.6153 18.3758C22.6731 19.0668 23.0742 19.6824 23.6827 20.0145L30.2723 23.6115C30.3291 23.6424 30.4023 23.6765 30.4621 23.7033C30.6147 23.7682 30.8014 23.8755 30.9385 23.9704V25.805H26.7754C27.4044 26.2793 27.5942 26.9579 27.8386 27.8675H31.2613C32.2214 27.8675 33.0021 27.0868 33.0021 26.1257V23.5445C33.001 22.5184 31.2593 21.8006 31.2593 21.8006Z" fill="black"/>
</svg>
